# xmcd CD database file
#
# Track frame offsets:
#	150
#	7365
#	38232
#	69828
#	98562
#	131850
#
# Disc length: 2879 seconds
#
# Revision: 0
# Processed by: cddbd v1.5.1PL0 Copyright (c) Steve Scherf et al.
# Submitted via: CDex 1.51
#
DISCID=4c0b3d06
DTITLE=Various Artist - Heart Healthy Steps
DYEAR=2005
DGENRE=New Age
TTITLE0=Solitudes Track 01
TTITLE1=Solitudes Track 02
TTITLE2=Solitudes Track 03
TTITLE3=Solitudes Track 04
TTITLE4=Solitudes Track 05
TTITLE5=Data
EXTD=YEAR: 2005
EXTT0=
EXTT1=
EXTT2=
EXTT3=
EXTT4=
EXTT5=
PLAYORDER=
